<?xml version="1.0" encoding="utf-8"?>
<!-- Generator: Adobe Illustrator 24.0.1, SVG Export Plug-In . SVG Version: 6.00 Build 0)  -->
<svg version="1.1" id="Capa_1" xmlns="http://www.w3.org/2000/svg" xmlns:xlink="http://www.w3.org/1999/xlink" x="0px" y="0px"
	 width="363.6px" height="142.2px" viewBox="0 0 363.6 142.2" style="enable-background:new 0 0 363.6 142.2;" xml:space="preserve"
	>
<g>
	<path d="M202.5,99.9c0,3.6-2.8,6.7-7.2,6.7c-4.6,0-7.8-3.5-7.8-7.7s3.2-7.7,7.8-7.7c2.8,0,5.2,1.4,6.4,3.6l-1,0.6
		c-1-1.8-3.1-3.1-5.4-3.1c-3.9,0-6.7,2.9-6.7,6.7s2.6,6.7,6.7,6.7c3.6,0,5.8-2.2,6.1-5H195v-1.1h7.5V99.9z"/>
	<path d="M214.9,102.4h-7.5l-1.4,3.8h-1.3l5.8-14.9h1.3l5.8,14.9h-1.3L214.9,102.4z M214.5,101.2l-3.3-8.6l-3.3,8.6H214.5z"/>
	<path d="M229.5,105.1v1.1h-8.2v-15h1.1v13.9H229.5z"/>
	<path d="M241.6,105.1v1.1h-8.2v-15h1.1v13.9H241.6z"/>
	<path d="M254.2,105.1v1.1h-8.6v-15h8.5v1.1h-7.4v5.8h6.8v1.1h-6.8v6h7.5V105.1z"/>
	<path d="M267.7,92.3h-4.7v13.9h-1.1V92.3h-4.7v-1.1h10.6L267.7,92.3L267.7,92.3z"/>
	<path d="M280.2,105.1v1.1h-8.6v-15h8.5v1.1h-7.4v5.8h6.8v1.1h-6.8v6h7.5V105.1z"/>
	<path d="M290.4,100h-4.7v6.1h-1.1V91.2h5.8c2.4,0,4.5,1.9,4.5,4.5c0,2.1-1.4,3.8-3.3,4.3l3.8,6.3H294L290.4,100z M285.6,99h4.7
		c1.8,0,3.3-1.5,3.3-3.3s-1.5-3.3-3.3-3.3h-4.7V99z"/>
	<path d="M298.4,98.7c0-4.3,3.3-7.7,7.7-7.7c4.3,0,7.7,3.5,7.7,7.7s-3.3,7.7-7.7,7.7C301.8,106.4,298.4,102.9,298.4,98.7z
		 M312.6,98.7c0-3.6-2.9-6.7-6.5-6.7c-3.6,0-6.5,2.9-6.5,6.7s2.9,6.7,6.5,6.7C309.7,105.4,312.6,102.4,312.6,98.7z"/>
	<path d="M316.8,102.9l1-0.6c0.6,1.8,2.1,3.1,4.5,3.1c2.5,0,3.8-1.3,3.8-2.9c0-1.8-1.5-2.5-3.9-3.2c-2.5-0.8-4.7-1.5-4.7-4.2
		c0-2.5,1.9-4,4.6-4c2.5,0,4,1.4,4.9,3.2l-1,0.6c-0.6-1.4-1.7-2.6-3.9-2.6c-2.1,0-3.3,1.3-3.3,2.9c0,1.8,1.5,2.4,3.6,3.1
		c2.6,0.8,5,1.7,5,4.3c0,2.5-1.9,4-4.9,4C319.5,106.4,317.5,105,316.8,102.9z"/>
	<path d="M196.8,130.8v1.1h-8.6v-15h8.5v1.1h-7.4v5.8h6.8v1.1h-6.8v6h7.5V130.8z"/>
	<path d="M214.8,131.7h-1.1v-13.2l-5.6,9.2h-0.1l-5.6-9.2v13.2h-1.1v-14.9h1.4l5.3,8.8l5.3-8.8h1.4v14.9H214.8z"/>
	<path d="M229.8,121.4c0,2.6-1.9,4.6-4.6,4.6h-3.9v5.7h-1.1v-14.9h5.2C227.7,116.8,229.8,118.8,229.8,121.4z M228.5,121.4
		c0-2.1-1.5-3.6-3.5-3.6h-3.9v7.1h3.9C227.1,125.1,228.5,123.5,228.5,121.4z"/>
	<path d="M242.7,130.8v1.1h-8.6v-15h8.5v1.1h-7.4v5.8h6.8v1.1h-6.8v6h7.5V130.8z"/>
	<path d="M259.7,124.4c0,4.2-2.9,7.5-7.1,7.5h-5.6v-15h5.6C256.8,116.8,259.7,120.2,259.7,124.4z M258.6,124.4c0-3.5-2.4-6.4-6-6.4
		h-4.5v12.8h4.5C256.2,130.8,258.6,127.8,258.6,124.4z"/>
	<path d="M272.8,130.8v1.1h-8.6v-15h8.5v1.1h-7.4v5.8h6.8v1.1h-6.8v6h7.5V130.8z"/>
	<path d="M283,125.6h-4.7v6.1h-1.1v-14.9h5.8c2.4,0,4.5,1.9,4.5,4.5c0,2.1-1.4,3.8-3.3,4.3l3.8,6.3h-1.3L283,125.6z M278.2,124.6
		h4.7c1.8,0,3.3-1.5,3.3-3.3s-1.5-3.3-3.3-3.3h-4.7V124.6z"/>
	<path d="M302.8,116.8v14.9h-1l-8.8-12.8v12.8h-1.1v-14.9h1l8.8,12.8v-12.8H302.8z"/>
	<path d="M309.2,116.8v14.9H308v-14.9H309.2z"/>
	<path d="M327.1,124.4c0,4.2-2.9,7.5-7.1,7.5h-5.6v-15h5.6C324.2,116.8,327.1,120.2,327.1,124.4z M326,124.4c0-3.5-2.4-6.4-6-6.4
		h-4.5v12.8h4.5C323.6,130.8,326,127.8,326,124.4z"/>
	<path d="M330.7,124.4c0-4.3,3.3-7.7,7.7-7.7c4.3,0,7.7,3.5,7.7,7.7s-3.3,7.7-7.7,7.7C334.1,132,330.7,128.5,330.7,124.4z
		 M344.9,124.4c0-3.6-2.9-6.7-6.5-6.7c-3.6,0-6.5,2.9-6.5,6.7s2.9,6.7,6.5,6.7C342,131,344.9,128,344.9,124.4z"/>
	<path d="M349.1,128.5l1-0.6c0.6,1.8,2.1,3.1,4.5,3.1c2.5,0,3.8-1.3,3.8-2.9c0-1.8-1.5-2.5-3.9-3.2c-2.5-0.8-4.7-1.5-4.7-4.2
		c0-2.5,1.9-4,4.6-4c2.5,0,4,1.4,4.9,3.2l-1,0.6c-0.6-1.4-1.7-2.6-3.9-2.6c-2.1,0-3.3,1.3-3.3,2.9c0,1.8,1.5,2.4,3.6,3.1
		c2.6,0.8,5,1.7,5,4.3c0,2.5-1.9,4-4.9,4C351.8,132,349.8,130.6,349.1,128.5z"/>
</g>
<g>
	<g>
		<path d="M13.7,44.9c0,0,1.5-0.8,1.1-1.8c-0.3-1-0.6-1.7-1.7-1C11.9,42.6,12.6,44.9,13.7,44.9z"/>
		<path d="M21.4,39c0.6,0,3.5-0.7,3.8-1.4c0.3-0.7,0.6-1.5-0.3-1.8c-1-0.3-0.7-0.7-1.8,0C21.8,36.5,19.5,38.9,21.4,39z"/>
		<path d="M16.1,38c0,0,2.2-1.5,1.8-2.2c-0.3-0.8-1.4-1.3-2.1-0.8C15.1,35.3,14.4,38.5,16.1,38z"/>
		<path d="M24.8,29.8c0,0,1.8,1,2.6,0.1c0.8-0.8,1-1.3,0.6-1.8c-0.4-0.6-1.3-1.1-2.1-0.6C25.1,28.1,24.7,29.3,24.8,29.8z"/>
	</g>
	<path d="M134.8,52.2c-0.6,1.1-1.3,2.5-2.2,4.5c-1,1.8-2.2,3.8-3.5,6c-1.4,2.1-2.8,4.3-4.5,6.4c-1.7,2.2-3.3,4.2-5,5.8
		c-1.7,1.8-3.5,3.2-5.2,4.3c-1.8,1.1-3.5,1.7-5,1.7c-2.5,0-4.5-0.8-5.8-2.6c-1.4-1.8-2.1-4.2-2.1-7.2c0-0.3,0-0.4-0.1-0.4v-0.1
		c0,0,0,0,0-0.1c-2.2,2.9-4.6,5.4-7.1,7.5c-2.5,2.1-4.9,3.2-7.1,3.2c-2.5,0-4.5-0.8-5.8-2.6c-1.4-1.8-2.1-4.2-2.1-7.2
		c0-1.7,0.3-3.3,0.7-5.3c0.4-1.9,1.1-3.9,1.8-6c0.7-2.1,1.5-4,2.4-6.1s1.7-3.9,2.5-5.7c1-2.4,1.9-4.5,2.8-6.5
		c0.8-1.9,1.3-3.5,1.3-4.3c0-0.1,0-0.3-0.1-0.6c-0.1-0.1-0.3-0.3-0.3-0.3c0-0.1-0.1-0.3-0.1-0.7c0-0.7,0.6-1.4,1.5-1.9
		c1.1-0.6,2.4-0.8,3.8-0.8c0.8,0,1.7,0.1,2.6,0.4c0.8,0.3,1.8,0.7,2.5,1.3c0.8,0.6,1.4,1.4,1.9,2.4s0.8,2.4,0.8,3.9
		c0,1.4-0.3,3.1-0.8,4.7c-0.6,1.8-1.3,3.6-2.1,5.6s-1.8,3.9-2.9,5.7c-1,1.9-2.1,3.8-3.1,5.4c-1.4,2.5-2.6,4.7-3.6,6.8
		c-1.1,2.1-1.7,3.6-1.7,4.6c0,0.4,0.3,0.6,0.7,0.6c0.7,0,1.8-0.7,3.1-2.1c1.4-1.4,2.8-3.1,4.5-5.3c1.7-2.1,3.2-4.3,4.7-6.8
		c1.5-2.4,2.9-4.7,4-6.8c0.4-0.8,0.8-1.8,1.3-2.8c0.4-1,0.8-1.9,1.3-2.8c1.1-2.5,2.1-4.6,2.9-6.5c0.8-1.9,1.3-3.3,1.3-4.3
		c0-0.1,0-0.3-0.1-0.6c-0.1-0.1-0.3-0.3-0.3-0.3c0-0.1-0.1-0.3-0.1-0.7c0-0.7,0.6-1.4,1.5-1.9c1.1-0.6,2.4-0.8,3.8-0.8
		c0.8,0,1.7,0.1,2.6,0.4c0.8,0.3,1.8,0.7,2.5,1.3c0.8,0.6,1.4,1.4,1.9,2.4c0.6,1,0.8,2.4,0.8,3.9c0,1.4-0.3,3.1-0.8,4.7
		c-0.6,1.8-1.3,3.6-2.1,5.6s-1.8,3.9-2.9,5.7c-1,1.9-2.1,3.8-3.1,5.4c-1.4,2.5-2.6,4.7-3.6,6.8c-1.1,2.1-1.7,3.6-1.7,4.6
		c0,0.4,0.3,0.6,0.7,0.6c0.6,0,1.3-0.4,2.2-1.3c1-0.8,2.1-1.9,3.2-3.3c1.3-1.4,2.4-2.9,3.6-4.6s2.5-3.5,3.6-5.3
		c1.1-1.8,2.1-3.5,3.1-5.2c0.8-1.7,1.5-3.1,2.1-4.2c0.4-1.1,1.3-1.8,2.4-1.8c0.7,0,1.4,0.3,1.9,0.7c0.6,0.4,0.8,1,0.8,1.7
		c0,0.1,0,0.3-0.1,0.6C135,51.8,135,52.1,134.8,52.2z"/>
	<path d="M162.3,40.4c0.3-0.8,0.6-1.7,0.7-2.4c0.1-0.7,0.3-1.3,0.3-1.7l-0.1-0.1c-0.1-0.1-0.3-0.6-0.3-1c0-0.7,0.6-1.3,1.7-1.8
		c1.1-0.6,2.4-0.8,3.9-0.8c0.7,0,1.5,0.1,2.4,0.3c0.8,0.3,1.8,0.6,2.5,1.1c0.8,0.6,1.4,1.3,1.9,2.2s0.8,2.1,0.8,3.5
		c0,1.5-0.4,3.5-1.1,5.8c-0.7,2.4-1.7,5-2.9,7.9c-1.3,2.9-2.6,6-4.2,9.3c-1.5,3.3-3.1,6.7-4.7,10c1.9-1.3,3.9-2.8,5.7-4.6
		s3.5-3.8,5.2-5.7c1.5-1.9,2.9-4,4.2-6c1.3-2.1,2.2-3.9,3.1-5.4c0.6-1,1.3-1.5,2.1-1.5c0.7,0,1.4,0.3,1.9,0.8c0.6,0.6,1,1.1,1,1.9
		c0,0.1,0,0.4-0.1,0.7c0,0.3-0.1,0.4-0.1,0.6c-1.4,2.6-2.9,5.4-4.9,8.2c-1.8,2.8-3.9,5.4-6.1,7.9c-2.2,2.5-4.7,4.7-7.4,6.7
		c-2.6,1.9-5.4,3.3-8.5,4.3c-0.7,1.3-1.3,2.4-1.7,3.3c-0.4,1-1,2.1-1.5,3.3h2.5c1.7,0,3.2,0,4.7-0.1c1.5-0.1,2.9-0.3,4-0.4
		c1.3-0.3,2.1-0.6,2.9-0.8c0.7-0.3,1.1-0.7,1.1-1.3c0-1.5,0.6-2.2,1.7-2.2c0.7,0,1.3,0.4,1.9,1.1c0.7,0.8,1,1.7,1,2.6
		c0,1.1-0.7,2.1-1.9,3.1c-1.3,1-3.1,1.8-5.2,2.5c-2.1,0.7-4.6,1.3-7.4,1.8c-2.8,0.4-5.7,0.7-8.6,0.8c-1.1,2.6-2.1,4.9-2.8,6.8
		c-0.7,1.9-1.1,3.5-1.1,4.5c0,0.4,0,0.7,0.1,0.8v-0.1c0.1,0.3,0.1,0.6,0.1,0.8c0,0.8-0.4,1.4-1.4,2.1c-0.8,0.6-1.9,0.8-3.2,0.8
		c-0.6,0-1.1-0.1-1.9-0.3c-0.8-0.3-1.5-0.6-2.2-1.1c-0.7-0.6-1.4-1.3-1.8-2.2c-0.6-1-0.8-2.1-0.8-3.5c0-1,0.1-2.2,0.6-3.8
		c0.4-1.4,0.8-3.1,1.3-4.7c-3.1,0.1-5.6,0.6-7.7,1.1c-1.9,0.7-3.1,1.8-3.2,3.6c0,0.8-0.3,1.5-0.7,1.9c-0.4,0.4-0.8,0.7-1.3,0.7
		c-0.6,0-1.1-0.4-1.8-1.4c-0.6-0.8-1-2.2-1-4.2c0-2.1,0.3-3.9,1-5.3c0.7-1.4,1.7-2.4,2.9-3.2s2.6-1.3,4.3-1.5
		c1.7-0.3,3.3-0.4,5.3-0.4c0.8,0,1.7,0,2.5,0c0.7,0,1.7,0,2.6,0.1c0.3-0.7,0.4-1.3,0.7-1.7c0.1-0.4,0.3-1,0.6-1.4
		c0.1-0.4,0.4-1,0.7-1.5c0.3-0.6,0.6-1.3,1-2.1c-1,0.6-1.9,1-3.1,1.3c-1.1,0.4-2.2,0.6-3.3,0.6c-2.5,0-4.6-0.4-6.3-1.3
		c-1.8-0.8-3.2-1.9-4.2-3.3c-1.1-1.4-1.8-2.9-2.4-4.6c-0.4-1.7-0.7-3.3-0.7-4.9c0-2.1,0.3-4.2,0.8-6.4c0.6-2.2,1.3-4.3,2.1-6.3
		c3.2-7.5,7-13.1,11.3-16.4c4.3-3.5,8.9-5.2,13.5-5.2c0.8,0,1.7,0.1,2.8,0.3c1.1,0.1,2.1,0.6,3.1,1.1c1,0.6,1.8,1.4,2.5,2.4
		c0.7,1,1,2.2,1,3.8v-0.1H162.3z M154.3,41.1c0-1.1,0.4-2.1,1.1-2.6h-0.1c-1.7,0-3.6,1.5-6,4.6s-5,7.5-7.7,13.2
		c-0.8,1.8-1.7,3.9-2.1,6.1c-0.6,2.2-0.8,4.2-0.8,6.1c0,1.7,0.3,3.2,0.7,4.5c0.4,1.3,1.3,1.9,2.4,1.9c0.8,0,1.8-0.6,3.1-1.8
		c1.1-1.3,2.4-2.8,3.6-4.6c1.3-1.8,2.5-3.9,3.6-6c1.3-2.2,2.4-4.2,3.3-6.1l2.2-4.3L161,44c-0.3,0.3-0.7,0.6-1.3,0.7
		c-0.4,0.1-1,0.3-1.5,0.3c-1,0-1.9-0.3-2.8-1C154.7,43,154.3,42.2,154.3,41.1z"/>
	<path d="M230.8,52.2c-0.6,1.1-1.3,2.5-2.2,4.5c-1,1.8-2.2,3.8-3.5,6c-1.4,2.1-2.8,4.3-4.5,6.4c-1.7,2.2-3.3,4.2-5,5.8
		c-1.7,1.8-3.5,3.2-5.2,4.3c-1.8,1.1-3.5,1.7-5,1.7c-2.5,0-4.5-0.8-5.8-2.6c-1.4-1.8-2.1-4.2-2.1-7.2c0-0.3,0-0.4-0.1-0.4v-0.1
		c0,0,0,0,0-0.1c-2.2,2.9-4.6,5.4-7.1,7.5s-4.9,3.2-7.1,3.2c-2.5,0-4.5-0.8-5.8-2.6c-1.4-1.8-2.1-4.2-2.1-7.2c0-1.7,0.3-3.3,0.7-5.3
		c0.4-1.9,1.1-3.9,1.8-6s1.5-4,2.4-6.1s1.7-3.9,2.5-5.7c1-2.4,1.9-4.5,2.8-6.5c0.8-1.9,1.3-3.5,1.3-4.3c0-0.1,0-0.3-0.1-0.6
		c-0.1-0.1-0.3-0.3-0.3-0.3c0-0.1-0.1-0.3-0.1-0.7c0-0.7,0.6-1.4,1.5-1.9c1.1-0.6,2.4-0.8,3.8-0.8c0.8,0,1.7,0.1,2.6,0.4
		c0.8,0.3,1.8,0.7,2.5,1.3c0.8,0.6,1.4,1.4,1.9,2.4s0.8,2.4,0.8,3.9c0,1.4-0.3,3.1-0.8,4.7c-0.6,1.8-1.3,3.6-2.1,5.6
		c-0.8,1.9-1.8,3.9-2.8,5.7c-1,1.9-2.1,3.8-3.1,5.4c-1.4,2.5-2.6,4.7-3.6,6.8c-1.1,2.1-1.7,3.6-1.7,4.6c0,0.4,0.3,0.6,0.7,0.6
		c0.7,0,1.8-0.7,3.1-2.1c1.4-1.4,2.8-3.1,4.5-5.3c1.7-2.1,3.2-4.3,4.7-6.8c1.5-2.4,2.9-4.7,4-6.8c0.4-0.8,0.8-1.8,1.3-2.8
		c0.4-1,0.8-1.9,1.3-2.8c1.1-2.5,2.1-4.6,2.9-6.5c0.8-1.9,1.3-3.3,1.3-4.3c0-0.1,0-0.3-0.1-0.6c-0.1-0.1-0.3-0.3-0.3-0.3
		c0-0.1-0.1-0.3-0.1-0.7c0-0.7,0.6-1.4,1.5-1.9c1.1-0.6,2.4-0.8,3.8-0.8c0.8,0,1.7,0.1,2.6,0.4c0.8,0.3,1.8,0.7,2.5,1.3
		c0.8,0.6,1.4,1.4,1.9,2.4s0.8,2.4,0.8,3.9c0,1.4-0.3,3.1-0.8,4.7c-0.6,1.8-1.3,3.6-2.1,5.6c-0.8,1.9-1.8,3.9-2.8,5.7
		c-1,1.9-2.1,3.8-3.1,5.4c-1.4,2.5-2.6,4.7-3.6,6.8c-1.1,2.1-1.7,3.6-1.7,4.6c0,0.4,0.3,0.6,0.7,0.6c0.6,0,1.3-0.4,2.2-1.3
		c1-0.8,2.1-1.9,3.2-3.3c1.3-1.4,2.4-2.9,3.6-4.6c1.3-1.7,2.5-3.5,3.6-5.3c1.1-1.8,2.1-3.5,3.1-5.2c1-1.7,1.5-3.1,2.1-4.2
		c0.4-1.1,1.3-1.8,2.4-1.8c0.7,0,1.4,0.3,1.9,0.7c0.6,0.4,0.8,1,0.8,1.7c0,0.1,0,0.3-0.1,0.6C230.8,51.8,230.8,52.1,230.8,52.2z"/>
	<path d="M252.9,52.2c-0.6,1.1-1.3,2.5-2.2,4.5c-1,1.8-2.2,3.8-3.5,6c-1.4,2.1-2.8,4.3-4.5,6.4c-1.7,2.2-3.3,4.2-5,5.8
		c-1.7,1.8-3.5,3.2-5.2,4.3c-1.8,1.1-3.5,1.7-5,1.7c-2.5,0-4.5-0.8-5.8-2.6c-1.4-1.8-2.1-4.2-2.1-7.2c0-1.7,0.3-3.3,0.7-5.3
		c0.4-1.9,1.1-3.9,1.8-6s1.5-4,2.4-6.1c0.8-2.1,1.7-3.9,2.5-5.7c1-2.4,1.9-4.5,2.8-6.5c0.8-1.9,1.3-3.5,1.3-4.3c0-0.1,0-0.3-0.1-0.6
		c-0.1-0.1-0.3-0.3-0.3-0.3c0-0.1-0.1-0.3-0.1-0.7c0-0.7,0.6-1.4,1.5-1.9c1.1-0.6,2.4-0.8,3.8-0.8c0.8,0,1.7,0.1,2.6,0.4
		c0.8,0.3,1.8,0.7,2.5,1.3c0.8,0.6,1.4,1.4,1.9,2.4c0.6,1,0.8,2.4,0.8,3.9c0,1.4-0.3,3.1-0.8,4.7c-0.6,1.8-1.3,3.6-2.1,5.6
		c-0.8,1.9-1.8,3.9-2.8,5.7c-1,1.9-2.1,3.8-3.1,5.4c-1.4,2.5-2.6,4.7-3.6,6.8c-1.1,2.1-1.7,3.6-1.7,4.6c0,0.4,0.3,0.6,0.7,0.6
		c0.6,0,1.3-0.4,2.2-1.3c1-0.8,2.1-1.9,3.2-3.3c1.3-1.4,2.4-2.9,3.6-4.6c1.3-1.7,2.5-3.5,3.6-5.3c1.1-1.8,2.1-3.5,3.1-5.2
		s1.5-3.1,2.1-4.2c0.4-1.1,1.3-1.8,2.4-1.8c0.7,0,1.4,0.3,1.9,0.7c0.6,0.4,0.8,1,0.8,1.7c0,0.1,0,0.3-0.1,0.6
		C253,51.8,252.9,52.1,252.9,52.2z M245.9,29c0,0.6-0.3,1-0.7,1.3c-0.4,0.3-1.1,0.4-1.9,0.4s-1.7-0.1-2.6-0.4
		c-1-0.3-1.9-0.8-2.9-1.4c-1-0.6-1.8-1.4-2.4-2.4c-0.6-1-1-2.1-1-3.5c0-0.6,0.3-1.3,0.7-2.1c0.4-0.8,1-1.7,1.4-2.5
		c0.4-0.7,0.7-1.4,1.1-1.9s0.6-1,0.6-1.3c0-1,0.8-1.5,2.4-1.5c0.7,0,1.5,0.1,2.6,0.4c1,0.3,1.9,0.8,2.9,1.4c1,0.6,1.7,1.4,2.4,2.4
		c0.7,1,1,2.1,1,3.5c0,0.4-0.1,1-0.6,1.8c-0.4,0.7-0.7,1.4-1.1,2.1c-0.4,0.7-0.8,1.4-1.3,2.2C246.2,28.1,245.9,28.6,245.9,29z"/>
	<path d="M260.8,79c-1.5,0.7-2.9,1.3-4.3,1.7c-1.4,0.4-2.5,0.6-3.6,0.6c-1.8,0-3.3-0.3-4.6-1c-1.3-0.6-2.4-1.4-3.2-2.4
		c-0.8-1-1.4-2.1-1.8-3.3s-0.6-2.5-0.6-3.6c0-1.9,0.4-3.6,1.1-4.9c0.7-1.3,1.5-2.4,2.5-3.2c1-0.8,1.9-1.4,2.9-1.7
		c1-0.3,1.7-0.4,2.1-0.4c1,0,1.9,0.3,2.9,1c1,0.6,1.4,1.5,1.4,2.8c0,1-0.4,1.9-1.3,2.6c-0.8,0.7-1.7,1.1-2.8,1.1
		c-1.1,0-2.1-0.4-2.6-1.1c-0.4,0.6-0.7,1.3-0.8,1.9c-0.1,0.7-0.3,1.4-0.3,2.1c0,1.3,0.3,2.4,1,3.3c0.7,1,1.7,1.5,3.1,1.5
		c0.6,0,1.3-0.3,2.2-0.7c1-0.4,1.8-1.3,2.8-2.4c0.8-1.1,1.7-2.6,2.4-4.3c0.7-1.8,1-3.9,1-6.4c0-2.1-0.3-4.5-1-7
		c-0.6-2.6-1.7-5.4-3.2-8.8c-0.4,0.8-0.8,1.5-1.3,2.5c-0.4,0.8-1,1.7-1.5,2.4c-0.6,0.7-1,1.3-1.5,1.8c-0.6,0.4-1,0.7-1.5,0.7
		c-0.7,0-1.4-0.3-1.8-0.7c-0.6-0.4-0.8-1-0.8-1.7c0-0.1,0-0.4,0-0.6c0-0.1,0.1-0.4,0.3-0.7l-0.1,0.1c0.6-1,1-1.9,1.4-2.9
		c0.4-0.8,0.8-1.7,1.3-2.4c0.4-0.8,0.8-1.4,1.3-2.1c0.4-0.6,0.7-1.3,1.3-2.2c-0.7-1-1.1-2.1-1.5-3.3s-0.6-2.4-0.6-3.8
		c0-0.6,0.1-1.4,0.4-2.4c0.3-1,0.7-1.9,1.3-2.9c0.6-0.8,1.5-1.7,2.5-2.4c1.1-0.7,2.5-1,4.3-1c2.1,0,3.5,0.4,4.5,1.4
		c0.8,0.8,1.3,2.1,1.3,3.5c0,1.1-0.3,2.2-0.7,3.6c-0.4,1.3-1.1,2.5-1.9,3.6l-0.1,0.1c3.9,4.5,6.7,8.6,8.2,12.4
		c1.7,3.9,2.4,7.4,2.4,10.4v0.7c0,0,0,0.1,0.1,0.1c0,0.1,0,0.3-0.1,0.4c1.7-1.8,3.1-3.8,4.3-5.6c1.3-1.8,2.4-3.5,3.2-5
		c0.6-1,1.3-1.5,2.1-1.5c0.7,0,1.4,0.3,1.9,0.8c0.6,0.6,1,1.1,1,1.9c0,0.1,0,0.4-0.1,0.7c0,0.3-0.1,0.4-0.1,0.6
		c-1.3,2.4-2.8,4.9-4.6,7.5c-1.8,2.6-3.8,5.2-5.8,7.5c-2.1,2.4-4.5,4.6-6.8,6.5C265.7,76.6,263.2,78,260.8,79L260.8,79z"/>
	<path d="M90.6,52.4c0-1-0.6-1.8-1.5-2.4h-0.1c-0.3,0-0.4-0.1-0.7-0.1c-0.1,0-0.4-0.1-0.4-0.1c-1.3,0-2.1,0.6-2.6,1.8v-0.1
		c-3.5,6.4-7.1,12.5-11,18.1s-7.8,10.4-11.8,14.6s-7.9,7.4-11.7,9.9c-3.9,2.4-7.4,3.6-10.7,3.6c-1.9,0-3.8-0.4-5.4-1.3
		c-1.7-0.8-3.1-2.1-4.2-3.8c-1.1-1.7-2.1-3.5-2.6-5.7s-1-4.7-1-7.4c0-2.1,0.3-4.7,1-8.1c0.7-3.3,1.7-7,3.1-11s3.2-8.2,5.4-12.7
		c2.2-4.5,4.7-8.8,7.8-13.1c1.9-2.6,3.9-5.2,6-7.4s3.9-4,5.8-5.7c1.8-1.5,3.5-2.8,5-3.6c1.5-0.8,2.8-1.3,3.9-1.3
		c1.1,0,1.8,0.6,2.2,1.7c0.4,1.1,0.6,2.4,0.6,3.8c0,1.5-0.3,3.2-0.6,5c-0.4,1.8-1,3.6-1.8,5.3c-0.8,1.8-1.7,3.3-2.8,4.9
		c-1.1,1.5-2.4,2.8-3.6,3.8c-0.4,0.3-0.7,0.7-1,1c-0.3,0.3-0.3,0.7-0.3,1.3c0,0.7,0.3,1.4,0.8,2.1c0.6,0.7,1.3,1.4,2.2,1.9
		c0.8,0.6,1.8,1.1,2.9,1.4c1.1,0.4,2.1,0.6,3.1,0.6c0.7,0,1.3,0,1.8-0.1c0.6-0.1,1.1-0.4,1.5-0.8v0.1c2.9-2.6,5.2-5.6,6.4-9.1
		c1.3-3.5,1.9-7,1.9-10.4s-0.4-6.4-1.4-8.9c-1-2.5-2.2-4.7-3.9-6.4c-1.7-1.7-3.5-2.9-5.7-3.8c-2.1-0.8-4.3-1.3-6.7-1.3
		c-1.8,0-3.6,0.3-5.4,0.7c-1.9,0-3.6,0.6-5.2,1.3c-1.5,0.7-3.1,1.4-4.3,2.1c-1.4,0.8-2.5,1.5-3.3,2.4c-3.9,3.2-7.4,6.7-10.6,10.2
		c0.4,1.3,1,3.1,0.7,4.6c-0.4,2.8-4.5,3.6-4.5,3.6s2.5,2.1,1.1,5s-5.2,3.2-5.2,3.2s0.4,2.2-1.4,3.8c-1.7,1.4-4.9,2.1-5.4,2.2
		c0,0.1-0.1,0.1-0.1,0.3c0,0.6-0.1,2.1-1.4,3.5c-0.1,0.1-0.3,0.3-0.4,0.3c-1.9,4.6-3.6,9.3-5.2,14.5c-0.6,1.9-1,4-1.3,6.1
		c-0.3,2.2-0.4,4.3-0.4,6.4c0,3.3,0.4,6.5,1.4,9.7c1,3.2,2.4,6.1,4.3,8.6c1.9,2.5,4.5,4.6,7.5,6.3c3.1,1.7,6.7,2.4,10.9,2.4
		c5,0,10-1.3,15.2-3.6c5-2.5,10-6,14.9-10.4c4.9-4.6,9.7-10,14.3-16.4c4.6-6.4,9.1-13.6,13.2-21.6l0,0.3
		C90.4,53.4,90.6,52.9,90.6,52.4z"/>
</g>
<path d="M127.6,5.3"/>
<path d="M127.6,5.3"/>
</svg>
