<?xml version="1.0" encoding="utf-8"?>
<!-- Generator: Adobe Illustrator 24.0.1, SVG Export Plug-In . SVG Version: 6.00 Build 0)  -->
<svg version="1.1" id="Capa_1" xmlns="http://www.w3.org/2000/svg" xmlns:xlink="http://www.w3.org/1999/xlink" x="0px" y="0px"
	 width="317.2px" height="123.8px" viewBox="0 0 317.2 123.8" style="enable-background:new 0 0 317.2 123.8;" xml:space="preserve"
	>
<style type="text/css">
	.st0{fill:#FFFFFF;}
</style>
<g>
	<g>
		<path class="st0" d="M188,90.5c0,2.8-2.1,5.1-5.6,5.1c-3.6,0-6.1-2.7-6.1-6s2.5-6,6-6c2.1,0,4,1.1,5,2.8l-0.8,0.5
			c-0.8-1.5-2.4-2.4-4.2-2.4c-3,0-5.1,2.3-5.1,5.1c0,2.8,2.1,5.1,5.2,5.1c2.8,0,4.5-1.7,4.7-3.9h-4.9v-0.8h5.8V90.5z"/>
		<path class="st0" d="M197.6,92.5h-5.8l-1.1,2.9h-0.9l4.5-11.6h0.9l4.5,11.6h-0.9L197.6,92.5z M197.3,91.7l-2.6-6.7l-2.6,6.7H197.3
			z"/>
		<path class="st0" d="M208.9,94.6v0.8h-6.3V83.9h0.9v10.7H208.9z"/>
		<path class="st0" d="M218.2,94.6v0.8h-6.3V83.9h0.9v10.7H218.2z"/>
		<path class="st0" d="M227.9,94.6v0.8h-6.7V83.9h6.6v0.8h-5.7v4.5h5.3V90h-5.3v4.6H227.9z"/>
		<path class="st0" d="M238.4,84.7h-3.6v10.7h-0.9V84.7h-3.6v-0.8h8.2V84.7z"/>
		<path class="st0" d="M248.1,94.6v0.8h-6.7V83.9h6.6v0.8h-5.7v4.5h5.3V90h-5.3v4.6H248.1z"/>
		<path class="st0" d="M256,90.7h-3.7v4.7h-0.9V83.9h4.6c1.9,0,3.4,1.5,3.4,3.4c0,1.6-1.1,2.9-2.5,3.3l2.9,4.9h-1L256,90.7z
			 M252.3,89.9h3.7c1.4,0,2.5-1.2,2.5-2.6c0-1.4-1.1-2.6-2.5-2.6h-3.7V89.9z"/>
		<path class="st0" d="M262.1,89.7c0-3.3,2.6-6,6-6c3.3,0,6,2.7,6,6s-2.6,6-6,6C264.8,95.6,262.1,93,262.1,89.7z M273.2,89.7
			c0-2.8-2.2-5.1-5.1-5.1c-2.9,0-5.1,2.3-5.1,5.1c0,2.8,2.2,5.1,5.1,5.1C271,94.8,273.2,92.5,273.2,89.7z"/>
		<path class="st0" d="M276.4,92.9l0.8-0.4c0.4,1.4,1.6,2.3,3.5,2.3c1.9,0,2.9-1,2.9-2.3c0-1.4-1.2-1.9-3-2.5
			c-1.9-0.6-3.7-1.2-3.7-3.2c0-1.9,1.5-3.1,3.5-3.1c1.9,0,3.2,1.1,3.7,2.4l-0.7,0.4c-0.4-1-1.3-2-3-2c-1.6,0-2.6,0.9-2.6,2.2
			c0,1.4,1.2,1.8,2.8,2.4c2,0.7,3.8,1.3,3.8,3.3c0,1.9-1.5,3.2-3.8,3.2C278.5,95.6,276.9,94.5,276.4,92.9z"/>
		<path class="st0" d="M183.6,114.4v0.8H177v-11.6h6.6v0.8h-5.7v4.5h5.3v0.8h-5.3v4.6H183.6z"/>
		<path class="st0" d="M197.4,115.3h-0.9V105l-4.3,7.1h-0.1l-4.3-7.1v10.3H187v-11.6h1.1l4.1,6.8l4.1-6.8h1.1V115.3z"/>
		<path class="st0" d="M209.1,107.3c0,2-1.5,3.6-3.6,3.6h-3.1v4.4h-0.9v-11.6h3.9C207.5,103.7,209.1,105.2,209.1,107.3z
			 M208.2,107.3c0-1.6-1.1-2.8-2.7-2.8h-3.1v5.5h3.1C207,110,208.2,108.9,208.2,107.3z"/>
		<path class="st0" d="M219.1,114.4v0.8h-6.7v-11.6h6.6v0.8h-5.7v4.5h5.3v0.8h-5.3v4.6H219.1z"/>
		<path class="st0" d="M232.2,109.5c0,3.2-2.3,5.8-5.4,5.8h-4.3v-11.6h4.3C230,103.7,232.2,106.3,232.2,109.5z M231.4,109.5
			c0-2.7-1.9-5-4.6-5h-3.5v9.9h3.5C229.5,114.4,231.4,112.2,231.4,109.5z"/>
		<path class="st0" d="M242.3,114.4v0.8h-6.7v-11.6h6.6v0.8h-5.7v4.5h5.3v0.8h-5.3v4.6H242.3z"/>
		<path class="st0" d="M250.2,110.5h-3.7v4.7h-0.9v-11.6h4.6c1.9,0,3.4,1.5,3.4,3.4c0,1.6-1.1,2.9-2.5,3.3l2.9,4.9h-1L250.2,110.5z
			 M246.6,109.7h3.7c1.4,0,2.5-1.2,2.5-2.6c0-1.4-1.1-2.6-2.5-2.6h-3.7V109.7z"/>
		<path class="st0" d="M265.5,103.7v11.6h-0.8l-6.8-9.9v9.9H257v-11.6h0.8l6.8,9.9v-9.9H265.5z"/>
		<path class="st0" d="M270.5,103.7v11.6h-0.9v-11.6H270.5z"/>
		<path class="st0" d="M284.4,109.5c0,3.2-2.3,5.8-5.4,5.8h-4.3v-11.6h4.3C282.1,103.7,284.4,106.3,284.4,109.5z M283.5,109.5
			c0-2.7-1.9-5-4.6-5h-3.5v9.9h3.5C281.6,114.4,283.5,112.2,283.5,109.5z"/>
		<path class="st0" d="M287.1,109.5c0-3.3,2.6-6,6-6c3.3,0,6,2.7,6,6c0,3.3-2.6,6-6,6C289.8,115.4,287.1,112.8,287.1,109.5z
			 M298.2,109.5c0-2.8-2.2-5.1-5.1-5.1c-2.9,0-5.1,2.3-5.1,5.1c0,2.8,2.2,5.1,5.1,5.1C296,114.6,298.2,112.3,298.2,109.5z"/>
		<path class="st0" d="M301.4,112.7l0.8-0.4c0.4,1.4,1.6,2.3,3.5,2.3c1.9,0,2.9-1,2.9-2.3c0-1.4-1.2-1.9-3-2.5
			c-1.9-0.6-3.7-1.2-3.7-3.2c0-1.9,1.5-3.1,3.5-3.1c1.9,0,3.2,1.1,3.7,2.4l-0.7,0.4c-0.4-1-1.3-2-3-2c-1.6,0-2.6,0.9-2.6,2.2
			c0,1.4,1.2,1.8,2.8,2.4c2,0.7,3.8,1.3,3.8,3.3c0,1.9-1.5,3.2-3.8,3.2C303.5,115.4,301.9,114.3,301.4,112.7z"/>
	</g>
	<g>
		<g>
			<path class="st0" d="M10.8,39.8c0,0,1.4-0.9,1.1-1.8c-0.3-0.9-0.5-1.5-1.7-1C9.1,37.6,9.8,39.8,10.8,39.8z"/>
			<path class="st0" d="M18.2,34.2c0.5,0,3.3-0.6,3.5-1.3c0.2-0.7,0.6-1.4-0.3-1.7c-0.9-0.3-0.7-0.7-1.7,0
				C18.6,31.9,16.5,34.1,18.2,34.2z"/>
			<path class="st0" d="M13.1,33.3c0,0,2.1-1.4,1.8-2.2c-0.3-0.7-1.3-1.1-2-0.8C12.2,30.7,11.5,33.7,13.1,33.3z"/>
			<path class="st0" d="M21.5,25.5c0,0,1.7,0.9,2.5,0.1c0.8-0.8,0.9-1.2,0.5-1.7c-0.4-0.5-1.2-1.1-2-0.6
				C21.8,23.9,21.3,24.9,21.5,25.5z"/>
		</g>
		<path class="st0" d="M126.3,46.7c-0.5,1-1.2,2.4-2.2,4.2c-1,1.8-2.1,3.6-3.4,5.7c-1.3,2-2.7,4.1-4.2,6.1c-1.5,2.1-3.1,3.9-4.7,5.6
			c-1.6,1.7-3.3,3.1-4.9,4.1c-1.7,1.1-3.3,1.6-4.8,1.6c-2.4,0-4.3-0.8-5.6-2.5c-1.3-1.7-2-4-2-7c0-0.3,0-0.5-0.1-0.5
			c0-0.1,0-0.1,0-0.1c0,0,0,0,0-0.1c-2.2,2.8-4.4,5.1-6.8,7.1c-2.4,2-4.7,3-6.8,3c-2.4,0-4.3-0.8-5.6-2.5c-1.3-1.7-2-4-2-7
			c0-1.5,0.2-3.2,0.6-5.1c0.4-1.8,1-3.7,1.7-5.7c0.7-1.9,1.5-3.9,2.3-5.8c0.8-1.9,1.6-3.8,2.4-5.5c1-2.2,1.9-4.3,2.7-6.2
			c0.8-1.9,1.2-3.3,1.2-4.1c0-0.1-0.1-0.3-0.2-0.6c-0.1-0.1-0.2-0.2-0.3-0.3c-0.1-0.1-0.1-0.3-0.1-0.6c0-0.7,0.5-1.3,1.5-1.8
			c1-0.5,2.2-0.8,3.6-0.8c0.8,0,1.6,0.1,2.5,0.4c0.9,0.2,1.7,0.6,2.4,1.2c0.7,0.6,1.4,1.3,1.8,2.3c0.5,1,0.7,2.2,0.7,3.7
			c0,1.4-0.3,2.9-0.8,4.6c-0.5,1.7-1.2,3.5-2,5.3c-0.8,1.8-1.7,3.7-2.7,5.5c-1,1.8-1.9,3.5-2.9,5.2c-1.3,2.3-2.5,4.5-3.5,6.5
			c-1,2-1.6,3.5-1.6,4.4c0,0.4,0.2,0.6,0.6,0.6c0.7,0,1.7-0.7,3-2c1.3-1.3,2.7-3,4.2-5c1.5-2,3.1-4.1,4.6-6.5
			c1.5-2.3,2.8-4.5,3.8-6.5c0.4-0.8,0.8-1.7,1.2-2.6c0.5-1,0.8-1.8,1.2-2.6c1-2.3,2-4.4,2.8-6.3c0.8-1.8,1.2-3.2,1.2-4.1
			c0-0.1-0.1-0.3-0.2-0.6c-0.1-0.1-0.2-0.2-0.3-0.3c-0.1-0.1-0.1-0.3-0.1-0.6c0-0.7,0.5-1.3,1.5-1.8c1-0.5,2.2-0.8,3.6-0.8
			c0.8,0,1.6,0.1,2.5,0.4c0.9,0.2,1.7,0.6,2.4,1.2c0.7,0.6,1.4,1.3,1.8,2.3c0.5,1,0.7,2.2,0.7,3.7c0,1.4-0.3,2.9-0.8,4.6
			c-0.5,1.7-1.2,3.5-2,5.3c-0.8,1.8-1.7,3.7-2.7,5.5c-1,1.8-1.9,3.5-2.9,5.2c-1.3,2.3-2.5,4.5-3.5,6.5c-1,2-1.6,3.5-1.6,4.4
			c0,0.4,0.2,0.6,0.6,0.6c0.5,0,1.2-0.4,2.1-1.2s2-1.9,3.1-3.2c1.1-1.3,2.3-2.8,3.5-4.4c1.2-1.6,2.3-3.3,3.4-5
			c1.1-1.7,2-3.3,2.9-4.9c0.9-1.6,1.5-2.9,1.9-4c0.4-1.1,1.2-1.7,2.3-1.7c0.7,0,1.3,0.2,1.8,0.6c0.5,0.4,0.8,0.9,0.8,1.6
			c0,0.1,0,0.3-0.1,0.5C126.4,46.5,126.4,46.6,126.3,46.7z"/>
		<path class="st0" d="M152.4,35.6c0.3-0.9,0.5-1.6,0.7-2.3c0.2-0.6,0.2-1.2,0.2-1.6l-0.1-0.2c-0.2-0.2-0.3-0.5-0.3-0.9
			c0-0.6,0.5-1.2,1.6-1.8c1-0.6,2.3-0.8,3.7-0.8c0.7,0,1.4,0.1,2.3,0.3c0.9,0.2,1.7,0.6,2.4,1.1c0.7,0.5,1.4,1.2,1.8,2.1
			c0.5,0.9,0.7,2,0.7,3.3c0,1.5-0.3,3.3-1,5.6c-0.7,2.2-1.6,4.7-2.8,7.5c-1.2,2.8-2.5,5.7-4,8.9c-1.5,3.1-3,6.3-4.5,9.5
			c1.9-1.2,3.7-2.6,5.5-4.3c1.7-1.7,3.4-3.5,4.9-5.4c1.5-1.9,2.8-3.8,4-5.8s2.2-3.7,3-5.2c0.5-1,1.2-1.5,2-1.5
			c0.7,0,1.3,0.3,1.9,0.8c0.6,0.5,0.9,1.1,0.9,1.8c0,0.2,0,0.4-0.1,0.6c-0.1,0.2-0.1,0.4-0.2,0.5c-1.3,2.5-2.8,5.1-4.6,7.8
			c-1.8,2.7-3.7,5.2-5.9,7.6c-2.2,2.4-4.5,4.5-7.1,6.4s-5.2,3.2-8.1,4.1c-0.6,1.2-1.2,2.2-1.6,3.1c-0.5,0.9-1,2-1.5,3.2h2.4
			c1.5,0,3,0,4.5-0.1c1.4-0.1,2.7-0.2,3.9-0.5c1.1-0.2,2-0.5,2.7-0.8c0.7-0.3,1-0.7,1-1.2c0-1.4,0.5-2.1,1.6-2.1
			c0.6,0,1.2,0.4,1.9,1.1c0.6,0.7,1,1.6,1,2.5c0,1-0.6,2-1.8,3c-1.2,0.9-2.9,1.7-4.9,2.4c-2,0.7-4.4,1.2-7.1,1.7
			c-2.7,0.4-5.4,0.7-8.2,0.7c-1.1,2.5-2,4.7-2.7,6.5c-0.7,1.8-1,3.3-1,4.2c0,0.4,0,0.7,0.1,0.7v-0.1c0.1,0.2,0.2,0.5,0.2,0.7
			c0,0.7-0.4,1.4-1.3,1.9c-0.9,0.6-1.9,0.8-3,0.8c-0.5,0-1.1-0.1-1.8-0.3c-0.7-0.2-1.4-0.6-2.1-1.1c-0.7-0.5-1.3-1.2-1.8-2.1
			c-0.5-0.9-0.7-2-0.7-3.4c0-1,0.2-2.2,0.5-3.5c0.3-1.4,0.8-2.9,1.2-4.5c-2.9,0.1-5.4,0.5-7.2,1.1c-1.9,0.6-2.9,1.8-3,3.5
			c-0.1,0.9-0.3,1.5-0.7,1.9c-0.4,0.4-0.8,0.6-1.2,0.6c-0.6,0-1.1-0.4-1.7-1.3c-0.6-0.9-0.9-2.2-0.9-4c0-2,0.3-3.7,1-5
			c0.6-1.3,1.6-2.3,2.7-3c1.2-0.7,2.5-1.2,4.1-1.5c1.5-0.3,3.2-0.4,5.1-0.4c0.9,0,1.6,0,2.4,0c0.7,0,1.6,0.1,2.5,0.2
			c0.2-0.6,0.4-1.2,0.6-1.6c0.2-0.5,0.3-0.9,0.5-1.3c0.2-0.4,0.4-0.9,0.6-1.4c0.2-0.5,0.5-1.2,0.9-2c-0.9,0.5-1.9,0.9-2.9,1.2
			c-1,0.3-2.1,0.5-3.2,0.5c-2.3,0-4.3-0.4-6-1.2c-1.7-0.8-3-1.9-4-3.2c-1-1.3-1.8-2.7-2.2-4.3c-0.5-1.6-0.7-3.2-0.7-4.7
			c0-2,0.3-4,0.8-6.1c0.6-2.1,1.2-4.1,1.9-5.9c3-7.2,6.6-12.4,10.7-15.7c4.1-3.3,8.4-4.9,12.9-4.9c0.7,0,1.6,0.1,2.6,0.3
			c1,0.2,2,0.6,2.9,1.1c0.9,0.6,1.7,1.3,2.4,2.2c0.6,0.9,1,2.1,1,3.6V35.6z M144.8,36.1c0-1.1,0.4-2,1.1-2.6h-0.2
			c-1.5,0-3.5,1.5-5.8,4.4c-2.3,3-4.7,7.1-7.2,12.5c-0.9,1.8-1.5,3.7-2,5.8c-0.5,2.1-0.7,4-0.7,5.8c0,1.6,0.2,3,0.7,4.2
			c0.5,1.2,1.2,1.8,2.3,1.8c0.8,0,1.8-0.6,2.9-1.8c1.1-1.2,2.2-2.6,3.4-4.4c1.2-1.8,2.3-3.7,3.5-5.7c1.2-2.1,2.2-4,3.1-5.9l2.1-4.1
			l3.2-7.7c-0.3,0.3-0.7,0.5-1.2,0.7c-0.5,0.2-0.9,0.2-1.4,0.2c-1,0-1.9-0.3-2.6-0.9C145.2,38,144.8,37.2,144.8,36.1z"/>
		<path class="st0" d="M217.6,46.7c-0.5,1-1.2,2.4-2.2,4.2c-1,1.8-2.1,3.6-3.4,5.7c-1.3,2-2.7,4.1-4.2,6.1c-1.5,2.1-3.1,3.9-4.7,5.6
			c-1.6,1.7-3.3,3.1-4.9,4.1c-1.7,1.1-3.3,1.6-4.8,1.6c-2.4,0-4.3-0.8-5.6-2.5c-1.3-1.7-2-4-2-7c0-0.3,0-0.5-0.1-0.5
			c0-0.1,0-0.1,0-0.1s0,0,0-0.1c-2.2,2.8-4.4,5.1-6.8,7.1c-2.4,2-4.7,3-6.8,3c-2.4,0-4.3-0.8-5.6-2.5c-1.3-1.7-2-4-2-7
			c0-1.5,0.2-3.2,0.6-5.1c0.4-1.8,1-3.7,1.7-5.7c0.7-1.9,1.5-3.9,2.3-5.8c0.8-1.9,1.6-3.8,2.4-5.5c1-2.2,1.9-4.3,2.7-6.2
			c0.8-1.9,1.2-3.3,1.2-4.1c0-0.1-0.1-0.3-0.2-0.6c-0.1-0.1-0.2-0.2-0.3-0.3c-0.1-0.1-0.1-0.3-0.1-0.6c0-0.7,0.5-1.3,1.5-1.8
			c1-0.5,2.2-0.8,3.6-0.8c0.8,0,1.6,0.1,2.5,0.4c0.9,0.2,1.7,0.6,2.4,1.2c0.7,0.6,1.3,1.3,1.8,2.3c0.5,1,0.7,2.2,0.7,3.7
			c0,1.4-0.3,2.9-0.8,4.6c-0.5,1.7-1.2,3.5-2,5.3c-0.8,1.8-1.7,3.7-2.7,5.5c-1,1.8-1.9,3.5-2.9,5.2c-1.3,2.3-2.5,4.5-3.5,6.5
			c-1,2-1.6,3.5-1.6,4.4c0,0.4,0.2,0.6,0.6,0.6c0.7,0,1.7-0.7,2.9-2c1.3-1.3,2.7-3,4.2-5c1.5-2,3.1-4.1,4.6-6.5
			c1.5-2.3,2.8-4.5,3.8-6.5c0.4-0.8,0.8-1.7,1.2-2.6c0.5-1,0.8-1.8,1.2-2.6c1-2.3,2-4.4,2.8-6.3c0.8-1.8,1.2-3.2,1.2-4.1
			c0-0.1-0.1-0.3-0.2-0.6c-0.1-0.1-0.2-0.2-0.3-0.3c-0.1-0.1-0.1-0.3-0.1-0.6c0-0.7,0.5-1.3,1.5-1.8c1-0.5,2.2-0.8,3.6-0.8
			c0.8,0,1.6,0.1,2.5,0.4c0.9,0.2,1.7,0.6,2.4,1.2c0.7,0.6,1.3,1.3,1.8,2.3c0.5,1,0.7,2.2,0.7,3.7c0,1.4-0.3,2.9-0.8,4.6
			c-0.5,1.7-1.2,3.5-2,5.3c-0.8,1.8-1.7,3.7-2.7,5.5c-1,1.8-1.9,3.5-2.9,5.2c-1.3,2.3-2.5,4.5-3.5,6.5c-1,2-1.6,3.5-1.6,4.4
			c0,0.4,0.2,0.6,0.6,0.6c0.5,0,1.2-0.4,2.1-1.2c0.9-0.8,1.9-1.9,3.1-3.2c1.1-1.3,2.3-2.8,3.5-4.4c1.2-1.6,2.3-3.3,3.4-5
			c1.1-1.7,2-3.3,2.9-4.9s1.5-2.9,1.9-4c0.4-1.1,1.2-1.7,2.3-1.7c0.7,0,1.3,0.2,1.8,0.6c0.5,0.4,0.8,0.9,0.8,1.6
			c0,0.1,0,0.3-0.1,0.5C217.7,46.5,217.6,46.6,217.6,46.7z"/>
		<path class="st0" d="M238.7,46.7c-0.5,1-1.2,2.4-2.2,4.2c-1,1.8-2.1,3.6-3.4,5.7c-1.3,2-2.7,4.1-4.2,6.1c-1.5,2.1-3.1,3.9-4.7,5.6
			c-1.6,1.7-3.3,3.1-4.9,4.1c-1.7,1.1-3.3,1.6-4.8,1.6c-2.4,0-4.3-0.8-5.6-2.5c-1.3-1.7-2-4-2-7c0-1.5,0.2-3.2,0.6-5.1
			c0.4-1.8,1-3.7,1.7-5.7c0.7-1.9,1.5-3.9,2.3-5.8c0.8-1.9,1.6-3.8,2.4-5.5c1-2.2,1.9-4.3,2.7-6.2c0.8-1.9,1.2-3.3,1.2-4.1
			c0-0.1-0.1-0.3-0.2-0.6c-0.1-0.1-0.2-0.2-0.3-0.3c-0.1-0.1-0.1-0.3-0.1-0.6c0-0.7,0.5-1.3,1.5-1.8c1-0.5,2.2-0.8,3.6-0.8
			c0.8,0,1.6,0.1,2.5,0.4c0.9,0.2,1.7,0.6,2.4,1.2c0.7,0.6,1.3,1.3,1.8,2.3c0.5,1,0.7,2.2,0.7,3.7c0,1.4-0.3,2.9-0.8,4.6
			c-0.5,1.7-1.2,3.5-2,5.3c-0.8,1.8-1.7,3.7-2.7,5.5c-1,1.8-1.9,3.5-2.9,5.2c-1.3,2.3-2.5,4.5-3.5,6.5c-1,2-1.6,3.5-1.6,4.4
			c0,0.4,0.2,0.6,0.6,0.6c0.5,0,1.2-0.4,2.1-1.2c0.9-0.8,2-1.9,3.1-3.2c1.1-1.3,2.3-2.8,3.5-4.4c1.2-1.6,2.3-3.3,3.4-5
			c1.1-1.7,2-3.3,2.9-4.9s1.5-2.9,1.9-4c0.4-1.1,1.2-1.7,2.3-1.7c0.7,0,1.3,0.2,1.8,0.6c0.5,0.4,0.8,0.9,0.8,1.6
			c0,0.1,0,0.3-0.1,0.5C238.8,46.5,238.7,46.6,238.7,46.7z M232.1,24.6c0,0.5-0.2,0.9-0.7,1.2c-0.5,0.3-1.1,0.4-1.8,0.4
			c-0.7,0-1.6-0.2-2.6-0.5c-1-0.3-1.9-0.8-2.8-1.3c-0.9-0.6-1.7-1.3-2.3-2.3c-0.6-0.9-1-2-1-3.3c0-0.6,0.2-1.2,0.6-2
			c0.4-0.8,0.9-1.6,1.4-2.4c0.4-0.7,0.7-1.3,1.1-1.9c0.3-0.6,0.5-1,0.5-1.2c0-1,0.8-1.5,2.3-1.5c0.7,0,1.5,0.2,2.5,0.5
			c1,0.3,1.9,0.8,2.8,1.3c0.9,0.6,1.6,1.3,2.3,2.3c0.6,0.9,0.9,2,0.9,3.3c0,0.4-0.2,1-0.5,1.7c-0.3,0.7-0.7,1.4-1.1,2
			c-0.4,0.7-0.8,1.4-1.2,2.1C232.3,23.8,232.1,24.3,232.1,24.6z"/>
		<path class="st0" d="M246.2,72.3c-1.4,0.7-2.8,1.2-4.1,1.6c-1.3,0.4-2.4,0.6-3.4,0.6c-1.7,0-3.2-0.3-4.4-0.9s-2.2-1.4-3-2.3
			c-0.8-1-1.3-2-1.7-3.2c-0.3-1.2-0.5-2.3-0.5-3.5c0-1.8,0.3-3.4,1-4.7c0.7-1.3,1.5-2.3,2.4-3c0.9-0.8,1.8-1.3,2.8-1.6
			c0.9-0.3,1.6-0.5,2-0.5c1,0,1.9,0.3,2.8,0.9c0.9,0.6,1.3,1.5,1.3,2.6c0,1-0.4,1.8-1.2,2.5c-0.8,0.7-1.6,1.1-2.6,1.1
			c-1.1,0-2-0.3-2.6-1c-0.4,0.6-0.6,1.2-0.8,1.8c-0.2,0.6-0.2,1.3-0.2,2c0,1.2,0.3,2.2,0.9,3.2c0.6,1,1.6,1.4,2.9,1.4
			c0.5,0,1.2-0.2,2.1-0.7c0.9-0.5,1.8-1.2,2.6-2.3c0.9-1.1,1.6-2.5,2.3-4.1c0.6-1.7,1-3.7,1-6.1c0-2-0.3-4.2-0.9-6.6
			c-0.6-2.5-1.6-5.2-3-8.3c-0.4,0.7-0.8,1.5-1.2,2.4c-0.5,0.8-0.9,1.6-1.4,2.3c-0.5,0.7-1,1.2-1.5,1.7c-0.5,0.5-1,0.7-1.5,0.7
			c-0.7,0-1.3-0.2-1.8-0.6s-0.7-0.9-0.7-1.6c0-0.2,0-0.4,0-0.5c0-0.2,0.1-0.4,0.3-0.7l-0.1,0.2c0.5-1,0.9-1.9,1.3-2.7
			c0.4-0.8,0.8-1.6,1.2-2.3c0.4-0.7,0.8-1.4,1.2-1.9c0.3-0.6,0.7-1.3,1.2-2.1c-0.6-1-1.1-2-1.5-3.2c-0.4-1.1-0.6-2.3-0.6-3.5
			c0-0.6,0.1-1.3,0.4-2.3c0.2-1,0.7-1.9,1.2-2.7c0.6-0.9,1.4-1.6,2.4-2.3c1-0.6,2.4-1,4.1-1c2,0,3.4,0.4,4.2,1.3
			c0.8,0.9,1.2,2,1.2,3.3c0,1-0.2,2.2-0.7,3.4c-0.5,1.2-1.1,2.4-1.9,3.5l-0.1,0.1c3.7,4.2,6.3,8.2,7.8,11.8c1.5,3.7,2.3,7,2.3,10
			v0.6c0,0.1,0,0.1,0.1,0.1c0,0.1,0,0.3-0.1,0.5c1.5-1.8,2.9-3.5,4.1-5.3c1.2-1.8,2.2-3.3,3-4.7c0.5-1,1.2-1.5,2-1.5
			c0.7,0,1.3,0.3,1.9,0.8c0.6,0.5,0.9,1.1,0.9,1.8c0,0.2,0,0.4-0.1,0.6c-0.1,0.2-0.1,0.4-0.2,0.5c-1.2,2.3-2.7,4.7-4.4,7.1
			c-1.7,2.5-3.6,4.9-5.6,7.1c-2,2.3-4.2,4.3-6.5,6.2C250.9,70,248.5,71.4,246.2,72.3L246.2,72.3z"/>
		<path class="st0" d="M84.1,46.9c0-1-0.5-1.7-1.5-2.2h-0.1c-0.2-0.1-0.5-0.1-0.6-0.2c-0.2-0.1-0.3-0.1-0.5-0.1
			c-1.2,0-2,0.6-2.6,1.7V46c-3.3,6.1-6.7,11.9-10.5,17.2c-3.7,5.3-7.5,10-11.2,14c-3.8,4-7.5,7.1-11.2,9.4
			c-3.7,2.3-7.1,3.4-10.2,3.4c-1.9,0-3.6-0.4-5.2-1.2c-1.6-0.8-2.9-2-4-3.5c-1.1-1.5-2-3.4-2.5-5.5c-0.6-2.1-0.9-4.5-0.9-7.1
			c0-2,0.3-4.5,1-7.7c0.6-3.2,1.6-6.7,2.9-10.5c1.3-3.8,3-7.9,5.1-12.1c2.1-4.2,4.6-8.4,7.4-12.4c1.8-2.6,3.7-4.9,5.7-7
			c1.9-2.1,3.8-3.9,5.5-5.4c1.7-1.5,3.4-2.7,4.8-3.5c1.5-0.8,2.7-1.2,3.7-1.2c1,0,1.7,0.5,2.1,1.6c0.4,1.1,0.6,2.3,0.6,3.6
			c0,1.5-0.2,3.1-0.6,4.8c-0.4,1.7-1,3.4-1.7,5.1c-0.7,1.7-1.6,3.2-2.6,4.7c-1,1.4-2.2,2.6-3.5,3.5c-0.4,0.3-0.7,0.6-0.9,0.9
			c-0.2,0.3-0.3,0.7-0.3,1.2c0,0.7,0.3,1.4,0.8,2c0.6,0.7,1.2,1.3,2.1,1.8c0.8,0.6,1.8,1,2.8,1.3c1,0.3,2,0.5,2.9,0.5
			c0.6,0,1.2-0.1,1.8-0.2c0.6-0.1,1-0.4,1.5-0.8V43c2.8-2.5,4.9-5.3,6.1-8.6c1.2-3.3,1.8-6.6,1.8-9.9c0-3.3-0.5-6.1-1.4-8.5
			c-0.9-2.4-2.2-4.5-3.7-6.1c-1.6-1.6-3.4-2.8-5.4-3.6c-2-0.8-4.1-1.2-6.4-1.2c-1.7,0-3.4,0.2-5.1,0.6c-1.7,0.4-3.3,0.9-4.8,1.5
			c-1.5,0.6-2.9,1.3-4.1,2c-1.2,0.7-2.3,1.5-3.1,2.2C34.3,14.4,31,17.7,28,21c0.4,1.2,0.9,2.9,0.7,4.4c-0.3,2.6-4.3,3.5-4.3,3.5
			s2.4,2,1.1,4.8c-1.3,2.7-4.9,3-4.9,3s0.5,2.1-1.3,3.6c-1.6,1.4-4.6,2-5.2,2.1c0,0.1-0.1,0.2-0.1,0.3c0,0.6-0.2,2-1.3,3.3
			c-0.1,0.1-0.2,0.2-0.4,0.3c-1.8,4.3-3.4,8.9-4.9,13.8C7,62,6.6,64,6.3,66.1c-0.3,2.1-0.5,4.1-0.5,6.1c0,3.1,0.4,6.2,1.3,9.3
			c0.9,3.1,2.3,5.8,4.1,8.2c1.9,2.4,4.3,4.4,7.1,5.9c2.9,1.5,6.3,2.3,10.3,2.3c4.8,0,9.6-1.2,14.4-3.5c4.8-2.3,9.6-5.7,14.2-10
			c4.7-4.3,9.2-9.6,13.6-15.7c4.4-6.1,8.6-13,12.6-20.5l-0.1,0.1C83.9,47.9,84.1,47.4,84.1,46.9z"/>
	</g>
</g>
</svg>
