<svg id="Capa_1" data-name="Capa 1" xmlns="http://www.w3.org/2000/svg" viewBox="0 0 143 204"><title>favicon</title><rect width="143" height="204" style="fill:#22151a"/><path d="M13.7,44.86s1.53-.84,1.11-1.81-.56-1.67-1.67-1S12.58,44.86,13.7,44.86Z" transform="translate(19.74 36.04)" style="fill:#8e6d74"/><path d="M21.35,39c.56,0,3.48-.7,3.76-1.39s.56-1.53-.28-1.81-.69-.7-1.81,0S19.54,38.87,21.35,39Z" transform="translate(19.74 36.04)" style="fill:#8e6d74"/><path d="M16.06,38s2.23-1.53,1.81-2.22A1.52,1.52,0,0,0,15.78,35C15.09,35.25,14.39,38.45,16.06,38Z" transform="translate(19.74 36.04)" style="fill:#8e6d74"/><path d="M24.83,29.82s1.81,1,2.65.14,1-1.25.56-1.81A1.54,1.54,0,0,0,26,27.59,2.52,2.52,0,0,0,24.83,29.82Z" transform="translate(19.74 36.04)" style="fill:#8e6d74"/><path d="M90.56,52.38A2.73,2.73,0,0,0,89,50h-.14c-.27,0-.41-.14-.69-.14a1.41,1.41,0,0,1-.42-.14,2.68,2.68,0,0,0-2.65,1.81V51.4a188.15,188.15,0,0,1-11,18.1A118.22,118.22,0,0,1,62.29,84.12,71.39,71.39,0,0,1,50.59,94c-3.9,2.37-7.38,3.62-10.72,3.62a12,12,0,0,1-5.43-1.25,10.88,10.88,0,0,1-4.18-3.76,18.08,18.08,0,0,1-2.64-5.71,30.41,30.41,0,0,1-1-7.38,40.06,40.06,0,0,1,1-8.08,90.87,90.87,0,0,1,3.06-11,104.36,104.36,0,0,1,5.43-12.67,99.4,99.4,0,0,1,7.8-13.09,82.08,82.08,0,0,1,6-7.38,77.08,77.08,0,0,1,5.85-5.71,32.1,32.1,0,0,1,5-3.62,8.42,8.42,0,0,1,3.9-1.25,2.21,2.21,0,0,1,2.22,1.67,10.65,10.65,0,0,1,.56,3.76,34.25,34.25,0,0,1-.56,5,23.37,23.37,0,0,1-1.81,5.3,27.51,27.51,0,0,1-2.78,4.87,18.88,18.88,0,0,1-3.62,3.76,6.43,6.43,0,0,0-1,1c-.27.28-.27.7-.27,1.26a3.3,3.3,0,0,0,.83,2.08,7.56,7.56,0,0,0,2.23,2,9.42,9.42,0,0,0,2.92,1.4,8.61,8.61,0,0,0,3.07.55,7.35,7.35,0,0,0,1.81-.14,3.34,3.34,0,0,0,1.53-.83v.14a22.56,22.56,0,0,0,6.4-9,30.59,30.59,0,0,0,2-10.45,24.35,24.35,0,0,0-1.39-8.91,18.36,18.36,0,0,0-3.9-6.4,15.62,15.62,0,0,0-5.71-3.76,17.71,17.71,0,0,0-6.68-1.25,24,24,0,0,0-5.43.69A12.29,12.29,0,0,0,49.9,10.6c-1.53.7-3.07,1.4-4.32,2.09a17.63,17.63,0,0,0-3.34,2.37A104.53,104.53,0,0,0,31.66,25.22a10.11,10.11,0,0,1,.69,4.6c-.41,2.78-4.45,3.62-4.45,3.62a4.28,4.28,0,0,1,1.11,5c-1.39,2.93-5.15,3.21-5.15,3.21a4.18,4.18,0,0,1-1.39,3.75c-1.67,1.4-4.88,2.09-5.43,2.23,0,.14-.14.14-.14.28a5.33,5.33,0,0,1-1.39,3.48c-.14.14-.28.28-.42.28A135.8,135.8,0,0,0,9.94,66.16a43.22,43.22,0,0,0-1.26,6.13,50.78,50.78,0,0,0-.42,6.4,32.85,32.85,0,0,0,1.4,9.75A26.29,26.29,0,0,0,14,97.07a23.81,23.81,0,0,0,7.52,6.27,22.37,22.37,0,0,0,10.86,2.37,36.09,36.09,0,0,0,15.18-3.63,65.66,65.66,0,0,0,14.9-10.44A112.69,112.69,0,0,0,76.77,75.21,183.67,183.67,0,0,0,90,53.63v.28A2.33,2.33,0,0,0,90.56,52.38Z" transform="translate(19.74 36.04)" style="fill:#8e6d74"/><path d="M127.59,5.31" transform="translate(19.74 36.04)"/><path d="M127.59,5.31" transform="translate(19.74 36.04)"/></svg>